<svg width="36" height="26" viewBox="0 0 36 26" fill="none" xmlns="http://www.w3.org/2000/svg">
<style>
    path[class="colors"] {
        fill: #1e1d20;
        @media (prefers-color-scheme: dark) {
            fill: #fff;
        }
    }
</style>
<g clip-path="url(#clip0_31_558)">
<path d="M9.14 3.26V4.91C8.68667 4.91 8.28 4.95333 7.92 5.04C7.56667 5.12667 7.29333 5.27667 7.1 5.49C6.91333 5.70333 6.84 6 6.88 6.38L7.25 10.05C7.31667 10.6767 7.26333 11.1933 7.09 11.6C6.92333 12 6.65333 12.31 6.28 12.53C5.90667 12.75 5.45 12.9067 4.91 13C5.47 13.0933 5.93667 13.2467 6.31 13.46C6.68333 13.6667 6.95 13.97 7.11 14.37C7.27 14.77 7.31667 15.2967 7.25 15.95L6.88 19.62C6.84 20 6.91333 20.2967 7.1 20.51C7.29333 20.73 7.56667 20.88 7.92 20.96C8.28 21.0467 8.68667 21.09 9.14 21.09V22.74C8.44667 22.74 7.81667 22.6833 7.25 22.57C6.69 22.4633 6.21333 22.2833 5.82 22.03C5.43333 21.7767 5.15 21.4333 4.97 21C4.79667 20.5733 4.74333 20.0433 4.81 19.41L5.18 15.96C5.22667 15.4867 5.16333 15.1 4.99 14.8C4.82333 14.4933 4.52 14.2667 4.08 14.12C3.64 13.9733 3.03333 13.9 2.26 13.9V12.1C3.02667 12.1 3.63 12.03 4.07 11.89C4.51667 11.7433 4.82333 11.52 4.99 11.22C5.16333 10.9133 5.22667 10.5233 5.18 10.05L4.81 6.6C4.74333 5.96 4.79667 5.42333 4.97 4.99C5.15 4.55667 5.43333 4.21667 5.82 3.97C6.21333 3.71667 6.69 3.53667 7.25 3.43C7.81667 3.31667 8.44667 3.26 9.14 3.26Z" class="colors"/>
<path d="M18.05 17.8L21.35 6.2H23.7L19.33 20H16.67L12.3 6.2H14.78L18.05 17.8Z" fill="#845CD6"/>
<path d="M26.86 3.26C27.5533 3.26 28.18 3.31667 28.74 3.43C29.3067 3.53667 29.7833 3.71667 30.17 3.97C30.5633 4.22333 30.85 4.56667 31.03 5C31.21 5.42667 31.2633 5.95667 31.19 6.59L30.82 10.05C30.7733 10.5233 30.8433 10.9133 31.03 11.22C31.2233 11.52 31.5433 11.7433 31.99 11.89C32.4367 12.03 33.02 12.1 33.74 12.1V13.9C33.02 13.9 32.4367 13.9733 31.99 14.12C31.5433 14.2667 31.2233 14.4933 31.03 14.8C30.8433 15.1 30.7733 15.4867 30.82 15.96L31.19 19.4C31.2567 20.04 31.2 20.5767 31.02 21.01C30.8467 21.4433 30.5633 21.7833 30.17 22.03C29.7833 22.2833 29.3067 22.4633 28.74 22.57C28.18 22.6833 27.5533 22.74 26.86 22.74V21.09C27.3133 21.09 27.7167 21.0467 28.07 20.96C28.43 20.88 28.7033 20.73 28.89 20.51C29.0833 20.2967 29.16 20 29.12 19.62L28.75 15.95C28.6833 15.2967 28.7333 14.77 28.9 14.37C29.0733 13.97 29.3567 13.6667 29.75 13.46C30.1433 13.2467 30.6367 13.0967 31.23 13.01C30.6367 12.9167 30.1433 12.76 29.75 12.54C29.3567 12.3133 29.0733 12 28.9 11.6C28.7333 11.2 28.6833 10.6833 28.75 10.05L29.12 6.38C29.16 6 29.0833 5.70333 28.89 5.49C28.7033 5.27667 28.4333 5.12667 28.08 5.04C27.7267 4.95333 27.32 4.91 26.86 4.91V3.26Z" class="colors"/>
</g>
<defs>
<clipPath id="clip0_31_558">
<rect width="36" height="26" fill="white"/>
</clipPath>
</defs>
</svg>
