<svg width="20" height="20" viewBox="0 0 20 20" fill="none" xmlns="http://www.w3.org/2000/svg">
<path d="M17.8125 11.875V16.25C17.8125 16.6644 17.6479 17.0618 17.3549 17.3549C17.0618 17.6479 16.6644 17.8125 16.25 17.8125H3.75C3.3356 17.8125 2.93817 17.6479 2.64515 17.3549C2.35212 17.0618 2.1875 16.6644 2.1875 16.25V11.875C2.1875 11.6264 2.28627 11.3879 2.46209 11.2121C2.6379 11.0363 2.87636 10.9375 3.125 10.9375C3.37364 10.9375 3.6121 11.0363 3.78791 11.2121C3.96373 11.3879 4.0625 11.6264 4.0625 11.875V15.9375H15.9375V11.875C15.9375 11.6264 16.0363 11.3879 16.2121 11.2121C16.3879 11.0363 16.6264 10.9375 16.875 10.9375C17.1236 10.9375 17.3621 11.0363 17.5379 11.2121C17.7137 11.3879 17.8125 11.6264 17.8125 11.875ZM9.33672 12.5383C9.42382 12.6257 9.52731 12.695 9.64126 12.7423C9.75522 12.7897 9.87739 12.814 10.0008 12.814C10.1242 12.814 10.2463 12.7897 10.3603 12.7423C10.4743 12.695 10.5777 12.6257 10.6648 12.5383L13.7898 9.41328C13.966 9.23716 14.0649 8.99829 14.0649 8.74922C14.0649 8.50015 13.966 8.26128 13.7898 8.08516C13.6137 7.90904 13.3749 7.81009 13.1258 7.81009C12.8767 7.81009 12.6378 7.90904 12.4617 8.08516L10.9375 9.60938V3.125C10.9375 2.87636 10.8387 2.6379 10.6629 2.46209C10.4871 2.28627 10.2486 2.1875 10 2.1875C9.75136 2.1875 9.5129 2.28627 9.33709 2.46209C9.16127 2.6379 9.0625 2.87636 9.0625 3.125V9.60938L7.53828 8.08672C7.36216 7.9106 7.12329 7.81165 6.87422 7.81165C6.62515 7.81165 6.38628 7.9106 6.21016 8.08672C6.03404 8.26284 5.93509 8.50171 5.93509 8.75078C5.93509 8.99985 6.03404 9.23872 6.21016 9.41484L9.33672 12.5383Z" fill="#845CD6"/>
</svg>
