<svg width="40" height="40" viewBox="0 0 40 40" fill="none" xmlns="http://www.w3.org/2000/svg">
<path d="M35.6938 13.9594L20.6938 3.95938C20.4883 3.82233 20.2469 3.74919 20 3.74919C19.7531 3.74919 19.5117 3.82233 19.3062 3.95938L4.30625 13.9594C4.13502 14.0736 3.99465 14.2284 3.89761 14.4099C3.80057 14.5915 3.74987 14.7942 3.75 15V31.25C3.75 31.913 4.01339 32.5489 4.48223 33.0178C4.95107 33.4866 5.58696 33.75 6.25 33.75H33.75C34.413 33.75 35.0489 33.4866 35.5178 33.0178C35.9866 32.5489 36.25 31.913 36.25 31.25V15C36.2501 14.7942 36.1994 14.5915 36.1024 14.4099C36.0054 14.2284 35.865 14.0736 35.6938 13.9594ZM15.1125 23.75L6.25 30V17.4266L15.1125 23.75ZM17.6703 25H22.3297L31.1781 31.25H8.82187L17.6703 25ZM24.8875 23.75L33.75 17.4266V30L24.8875 23.75ZM20 6.50157L32.7984 15.0344L22.3297 22.5H17.6734L7.20469 15.0344L20 6.50157Z" fill="#845CD6"/>
</svg>
