<svg width="40" height="40" viewBox="0 0 40 40" fill="none" xmlns="http://www.w3.org/2000/svg">
<path d="M32.5484 11.825C32.9305 10.5925 33.0531 9.29419 32.9084 8.01196C32.7637 6.72972 32.3549 5.49138 31.7078 4.375C31.5981 4.18493 31.4402 4.02711 31.2502 3.9174C31.0601 3.80768 30.8445 3.74995 30.625 3.75C29.169 3.74695 27.7326 4.08447 26.4303 4.7356C25.128 5.38672 23.9961 6.3334 23.125 7.5H19.375C18.5039 6.3334 17.372 5.38672 16.0697 4.7356C14.7674 4.08447 13.331 3.74695 11.875 3.75C11.6555 3.74995 11.4399 3.80768 11.2498 3.9174C11.0598 4.02711 10.9019 4.18493 10.7922 4.375C10.1451 5.49138 9.73629 6.72972 9.59161 8.01196C9.44693 9.29419 9.56949 10.5925 9.95156 11.825C9.17926 13.173 8.76556 14.6965 8.75 16.25V17.5C8.75263 19.615 9.52042 21.6576 10.9116 23.2507C12.3028 24.8438 14.2234 25.8797 16.3188 26.1672C15.4635 27.2617 14.9992 28.611 15 30V31.25H11.25C10.2554 31.25 9.30161 30.8549 8.59835 30.1516C7.89509 29.4484 7.5 28.4946 7.5 27.5C7.5 26.6792 7.33834 25.8665 7.02425 25.1082C6.71016 24.3499 6.24978 23.6609 5.66942 23.0806C5.08905 22.5002 4.40006 22.0398 3.64177 21.7257C2.88349 21.4117 2.07076 21.25 1.25 21.25C0.918479 21.25 0.600537 21.3817 0.366117 21.6161C0.131696 21.8505 0 22.1685 0 22.5C0 22.8315 0.131696 23.1495 0.366117 23.3839C0.600537 23.6183 0.918479 23.75 1.25 23.75C2.24456 23.75 3.19839 24.1451 3.90165 24.8483C4.60491 25.5516 5 26.5054 5 27.5C5 29.1576 5.65848 30.7473 6.83058 31.9194C8.00269 33.0915 9.5924 33.75 11.25 33.75H15V36.25C15 36.5815 15.1317 36.8995 15.3661 37.1339C15.6005 37.3683 15.9185 37.5 16.25 37.5C16.5815 37.5 16.8995 37.3683 17.1339 37.1339C17.3683 36.8995 17.5 36.5815 17.5 36.25V30C17.5 29.0054 17.8951 28.0516 18.5983 27.3483C19.3016 26.6451 20.2554 26.25 21.25 26.25C22.2446 26.25 23.1984 26.6451 23.9017 27.3483C24.6049 28.0516 25 29.0054 25 30V36.25C25 36.5815 25.1317 36.8995 25.3661 37.1339C25.6005 37.3683 25.9185 37.5 26.25 37.5C26.5815 37.5 26.8995 37.3683 27.1339 37.1339C27.3683 36.8995 27.5 36.5815 27.5 36.25V30C27.5008 28.611 27.0365 27.2617 26.1812 26.1672C28.2766 25.8797 30.1972 24.8438 31.5884 23.2507C32.9796 21.6576 33.7474 19.615 33.75 17.5V16.25C33.7344 14.6965 33.3207 13.173 32.5484 11.825ZM31.25 17.5C31.25 19.1576 30.5915 20.7473 29.4194 21.9194C28.2473 23.0915 26.6576 23.75 25 23.75H17.5C15.8424 23.75 14.2527 23.0915 13.0806 21.9194C11.9085 20.7473 11.25 19.1576 11.25 17.5V16.25C11.2653 15 11.6396 13.7808 12.3281 12.7375C12.4565 12.5683 12.5396 12.3692 12.5697 12.159C12.5998 11.9487 12.5758 11.7343 12.5 11.5359C12.1744 10.6962 12.0177 9.80055 12.0389 8.9002C12.0601 7.99984 12.2587 7.11251 12.6234 6.28906C13.6464 6.39911 14.6315 6.73799 15.5057 7.28058C16.3799 7.82317 17.1208 8.55555 17.6734 9.42344C17.7861 9.59954 17.941 9.74459 18.1242 9.84531C18.3074 9.94604 18.5128 9.99922 18.7219 10H23.7766C23.9864 10 24.1928 9.94719 24.3769 9.84643C24.5609 9.74567 24.7166 9.6002 24.8297 9.42344C25.3822 8.55547 26.1231 7.82303 26.9973 7.28043C27.8715 6.73783 28.8567 6.399 29.8797 6.28906C30.2439 7.11272 30.442 8.00015 30.4627 8.90051C30.4833 9.80087 30.3261 10.6964 30 11.5359C29.9245 11.7324 29.8992 11.9447 29.9265 12.1534C29.9537 12.3622 30.0327 12.5608 30.1562 12.7312C30.8516 13.7746 31.2314 14.9963 31.25 16.25V17.5Z" fill="#845CD6"/>
</svg>
